%
M48
M72
T01C0.01378
T02C0.02000
T03C0.03200
T04C0.03500
T05C0.03543
T06C0.03937
T07C0.04000
T08C0.04921
T09C0.05906
T10C0.12500
%
T01
X235000Y101800
X315000Y91800
X315000Y111800
X285000Y171800
X320000Y201800
X220000Y276800
X160000Y266800
X395000Y121800
X410000Y121800
X485000Y191800
X485000Y241800
T02
X280000Y236800
X280000Y231800
X280000Y226800
X280000Y221800
X280000Y216800
X175000Y106800
X220000Y86800
T03
X260000Y101800
X260000Y111800
X300000Y111800
X300000Y121800
X300000Y131800
X300000Y141800
X300000Y151800
X300000Y161800
X300000Y171800
X300000Y181800
X300000Y191800
X300000Y201800
X300000Y211800
X300000Y221800
X300000Y231800
X330000Y231800
X330000Y221800
X330000Y211800
X330000Y201800
X330000Y191800
X330000Y181800
X330000Y171800
X330000Y161800
X330000Y151800
X330000Y141800
X330000Y131800
X330000Y121800
X330000Y111800
X330000Y101800
X300000Y101800
X350000Y131800
X350000Y141800
X385000Y146800
X400000Y146800
X420000Y141800
X420000Y131800
X440000Y131800
X440000Y141800
X440000Y151800
X440000Y161800
X440000Y171800
X440000Y181800
X440000Y191800
X440000Y201800
X440000Y211800
X440000Y221800
X440000Y231800
X470000Y231800
X470000Y221800
X470000Y211800
X470000Y201800
X470000Y191800
X470000Y181800
X470000Y171800
X470000Y161800
X470000Y151800
X470000Y141800
X470000Y131800
X470000Y121800
X470000Y111800
X470000Y101800
X465000Y76800
X465000Y66800
X450000Y71800
X440000Y101800
X440000Y111800
X440000Y121800
X400000Y106800
X385000Y106800
X410000Y71800
X355000Y221800
X355000Y231800
X380000Y301800
X420000Y301800
X245000Y291800
X200000Y296800
X175000Y286800
X175000Y276800
X200000Y256800
X245000Y251800
T04
X150000Y56800
X150000Y66800
X150000Y76800
X150000Y86800
X150000Y96800
X150000Y106800
T05
X150000Y206957
X150000Y216800
X150000Y226643
T06
X260157Y281800
X279843Y281800
X385157Y276800
X404843Y276800
T07
X365000Y301800
X365000Y311800
X365000Y321800
X365000Y331800
X365000Y341800
X365000Y351800
X365000Y361800
X335000Y361800
X335000Y351800
X335000Y341800
X335000Y331800
X335000Y321800
X335000Y311800
X335000Y301800
X305000Y311800
X305000Y321800
X305000Y341800
X305000Y351800
X200000Y236800
X190000Y236800
X180000Y236800
X170000Y236800
X145000Y176800
X145000Y166800
X167500Y112800
X167500Y102800
X167500Y92800
X167500Y82800
X167500Y72800
X167500Y62800
X167500Y52800
X167500Y42800
X235000Y41800
X235000Y51800
X245000Y51800
X245000Y41800
X245000Y31800
X245000Y21800
X235000Y21800
X235000Y31800
X235000Y11800
X245000Y11800
X265000Y11800
X275000Y11800
X285000Y11800
X295000Y11800
X305000Y11800
X315000Y11800
X325000Y11800
X335000Y11800
X345000Y11800
X355000Y11800
X355000Y21800
X355000Y31800
X345000Y31800
X345000Y21800
X335000Y21800
X335000Y31800
X325000Y31800
X325000Y21800
X315000Y21800
X315000Y31800
X305000Y31800
X305000Y21800
X295000Y21800
X285000Y21800
X285000Y31800
X295000Y31800
X295000Y41800
X285000Y41800
X285000Y51800
X295000Y51800
X305000Y51800
X305000Y41800
X315000Y41800
X315000Y51800
X325000Y51800
X325000Y41800
X335000Y41800
X335000Y51800
X345000Y51800
X345000Y41800
X355000Y41800
X355000Y51800
X355000Y61800
X345000Y61800
X335000Y61800
X325000Y61800
X315000Y61800
X305000Y61800
X295000Y61800
X285000Y61800
X275000Y61800
X265000Y61800
X265000Y51800
X265000Y41800
X275000Y41800
X275000Y51800
X275000Y31800
X275000Y21800
X265000Y21800
X265000Y31800
X245000Y61800
X235000Y61800
X235000Y71800
X235000Y81800
X245000Y81800
X245000Y71800
X265000Y71800
X265000Y81800
X275000Y81800
X275000Y71800
X285000Y71800
X295000Y71800
X295000Y81800
X285000Y81800
X305000Y81800
X305000Y71800
X315000Y71800
X315000Y81800
X325000Y81800
X325000Y71800
X335000Y71800
X335000Y81800
X345000Y81800
X345000Y71800
X355000Y71800
X355000Y81800
X375000Y81800
X375000Y71800
X385000Y71800
X385000Y81800
X385000Y61800
X375000Y61800
X375000Y51800
X375000Y41800
X385000Y41800
X385000Y51800
X385000Y31800
X385000Y21800
X375000Y21800
X375000Y31800
X375000Y11800
X385000Y11800
T08
X154130Y261957
X154130Y281643
T09
X143500Y285580
X143500Y258020
T10
X140000Y306800
X140000Y376800
X515000Y381800
X515000Y301800
M30
