G75*
%MOIN*%
%OFA0B0*%
%FSLAX25Y25*%
%IPPOS*%
%LPD*%
%AMOC8*
5,1,8,0,0,1.08239X$1,22.5*
%
%ADD10C,0.13300*%
%ADD11C,0.06400*%
%ADD12R,0.06115X0.02375*%
%ADD13C,0.08182*%
%ADD14C,0.09658*%
%ADD15C,0.08200*%
%ADD16C,0.06743*%
%ADD17OC8,0.06400*%
%ADD18C,0.05200*%
%ADD19C,0.07137*%
%ADD20C,0.07100*%
%ADD21OC8,0.07100*%
%ADD22C,0.06700*%
%ADD23C,0.07200*%
D10*
X0140000Y0306800D03*
X0140000Y0376800D03*
X0515000Y0381800D03*
X0515000Y0301800D03*
D11*
X0472800Y0231800D02*
X0467200Y0231800D01*
X0467200Y0221800D02*
X0472800Y0221800D01*
X0472800Y0211800D02*
X0467200Y0211800D01*
X0467200Y0201800D02*
X0472800Y0201800D01*
X0472800Y0191800D02*
X0467200Y0191800D01*
X0467200Y0181800D02*
X0472800Y0181800D01*
X0472800Y0171800D02*
X0467200Y0171800D01*
X0467200Y0161800D02*
X0472800Y0161800D01*
X0472800Y0151800D02*
X0467200Y0151800D01*
X0467200Y0141800D02*
X0472800Y0141800D01*
X0472800Y0131800D02*
X0467200Y0131800D01*
X0467200Y0121800D02*
X0472800Y0121800D01*
X0472800Y0111800D02*
X0467200Y0111800D01*
X0467200Y0101800D02*
X0472800Y0101800D01*
X0442800Y0101800D02*
X0437200Y0101800D01*
X0437200Y0111800D02*
X0442800Y0111800D01*
X0442800Y0121800D02*
X0437200Y0121800D01*
X0437200Y0131800D02*
X0442800Y0131800D01*
X0442800Y0141800D02*
X0437200Y0141800D01*
X0437200Y0151800D02*
X0442800Y0151800D01*
X0442800Y0161800D02*
X0437200Y0161800D01*
X0437200Y0171800D02*
X0442800Y0171800D01*
X0442800Y0181800D02*
X0437200Y0181800D01*
X0437200Y0191800D02*
X0442800Y0191800D01*
X0442800Y0201800D02*
X0437200Y0201800D01*
X0437200Y0211800D02*
X0442800Y0211800D01*
X0442800Y0221800D02*
X0437200Y0221800D01*
X0437200Y0231800D02*
X0442800Y0231800D01*
X0332800Y0231800D02*
X0327200Y0231800D01*
X0327200Y0221800D02*
X0332800Y0221800D01*
X0332800Y0211800D02*
X0327200Y0211800D01*
X0327200Y0201800D02*
X0332800Y0201800D01*
X0332800Y0191800D02*
X0327200Y0191800D01*
X0327200Y0181800D02*
X0332800Y0181800D01*
X0332800Y0171800D02*
X0327200Y0171800D01*
X0327200Y0161800D02*
X0332800Y0161800D01*
X0332800Y0151800D02*
X0327200Y0151800D01*
X0327200Y0141800D02*
X0332800Y0141800D01*
X0332800Y0131800D02*
X0327200Y0131800D01*
X0327200Y0121800D02*
X0332800Y0121800D01*
X0332800Y0111800D02*
X0327200Y0111800D01*
X0327200Y0101800D02*
X0332800Y0101800D01*
X0302800Y0101800D02*
X0297200Y0101800D01*
X0297200Y0111800D02*
X0302800Y0111800D01*
X0302800Y0121800D02*
X0297200Y0121800D01*
X0297200Y0131800D02*
X0302800Y0131800D01*
X0302800Y0141800D02*
X0297200Y0141800D01*
X0297200Y0151800D02*
X0302800Y0151800D01*
X0302800Y0161800D02*
X0297200Y0161800D01*
X0297200Y0171800D02*
X0302800Y0171800D01*
X0302800Y0181800D02*
X0297200Y0181800D01*
X0297200Y0191800D02*
X0302800Y0191800D01*
X0302800Y0201800D02*
X0297200Y0201800D01*
X0297200Y0211800D02*
X0302800Y0211800D01*
X0302800Y0221800D02*
X0297200Y0221800D01*
X0297200Y0231800D02*
X0302800Y0231800D01*
D12*
X0154130Y0266682D03*
X0154130Y0269241D03*
X0154130Y0271800D03*
X0154130Y0274359D03*
X0154130Y0276918D03*
D13*
X0154130Y0281643D03*
X0154130Y0261957D03*
D14*
X0143500Y0258020D03*
X0143500Y0285580D03*
D15*
X0170000Y0236800D03*
X0180000Y0236800D03*
X0190000Y0236800D03*
X0200000Y0236800D03*
X0145000Y0176800D03*
X0145000Y0166800D03*
X0167500Y0112800D03*
X0167500Y0102800D03*
X0167500Y0092800D03*
X0167500Y0082800D03*
X0167500Y0072800D03*
X0167500Y0062800D03*
X0167500Y0052800D03*
X0167500Y0042800D03*
X0235000Y0041800D03*
X0235000Y0051800D03*
X0245000Y0051800D03*
X0245000Y0041800D03*
X0245000Y0031800D03*
X0245000Y0021800D03*
X0235000Y0021800D03*
X0235000Y0031800D03*
X0235000Y0011800D03*
X0245000Y0011800D03*
X0265000Y0011800D03*
X0275000Y0011800D03*
X0285000Y0011800D03*
X0295000Y0011800D03*
X0305000Y0011800D03*
X0315000Y0011800D03*
X0325000Y0011800D03*
X0335000Y0011800D03*
X0345000Y0011800D03*
X0355000Y0011800D03*
X0355000Y0021800D03*
X0355000Y0031800D03*
X0345000Y0031800D03*
X0345000Y0021800D03*
X0335000Y0021800D03*
X0335000Y0031800D03*
X0325000Y0031800D03*
X0325000Y0021800D03*
X0315000Y0021800D03*
X0315000Y0031800D03*
X0305000Y0031800D03*
X0305000Y0021800D03*
X0295000Y0021800D03*
X0285000Y0021800D03*
X0285000Y0031800D03*
X0295000Y0031800D03*
X0295000Y0041800D03*
X0285000Y0041800D03*
X0285000Y0051800D03*
X0295000Y0051800D03*
X0305000Y0051800D03*
X0305000Y0041800D03*
X0315000Y0041800D03*
X0315000Y0051800D03*
X0325000Y0051800D03*
X0325000Y0041800D03*
X0335000Y0041800D03*
X0335000Y0051800D03*
X0345000Y0051800D03*
X0345000Y0041800D03*
X0355000Y0041800D03*
X0355000Y0051800D03*
X0355000Y0061800D03*
X0345000Y0061800D03*
X0335000Y0061800D03*
X0325000Y0061800D03*
X0315000Y0061800D03*
X0305000Y0061800D03*
X0295000Y0061800D03*
X0285000Y0061800D03*
X0275000Y0061800D03*
X0265000Y0061800D03*
X0265000Y0051800D03*
X0265000Y0041800D03*
X0275000Y0041800D03*
X0275000Y0051800D03*
X0275000Y0031800D03*
X0275000Y0021800D03*
X0265000Y0021800D03*
X0265000Y0031800D03*
X0245000Y0061800D03*
X0235000Y0061800D03*
X0235000Y0071800D03*
X0235000Y0081800D03*
X0245000Y0081800D03*
X0245000Y0071800D03*
X0265000Y0071800D03*
X0265000Y0081800D03*
X0275000Y0081800D03*
X0275000Y0071800D03*
X0285000Y0071800D03*
X0295000Y0071800D03*
X0295000Y0081800D03*
X0285000Y0081800D03*
X0305000Y0081800D03*
X0305000Y0071800D03*
X0315000Y0071800D03*
X0315000Y0081800D03*
X0325000Y0081800D03*
X0325000Y0071800D03*
X0335000Y0071800D03*
X0335000Y0081800D03*
X0345000Y0081800D03*
X0345000Y0071800D03*
X0355000Y0071800D03*
X0355000Y0081800D03*
X0375000Y0081800D03*
X0375000Y0071800D03*
X0385000Y0071800D03*
X0385000Y0081800D03*
X0385000Y0061800D03*
X0375000Y0061800D03*
X0375000Y0051800D03*
X0375000Y0041800D03*
X0385000Y0041800D03*
X0385000Y0051800D03*
X0385000Y0031800D03*
X0385000Y0021800D03*
X0375000Y0021800D03*
X0375000Y0031800D03*
X0375000Y0011800D03*
X0385000Y0011800D03*
X0305000Y0311800D03*
X0305000Y0321800D03*
X0305000Y0341800D03*
X0305000Y0351800D03*
D16*
X0150000Y0226643D03*
X0150000Y0216800D03*
X0150000Y0206957D03*
D17*
X0200000Y0256800D03*
X0175000Y0276800D03*
X0175000Y0286800D03*
X0200000Y0296800D03*
X0245000Y0291800D03*
X0245000Y0251800D03*
X0355000Y0231800D03*
X0355000Y0221800D03*
X0385000Y0146800D03*
X0400000Y0146800D03*
X0420000Y0141800D03*
X0420000Y0131800D03*
X0400000Y0106800D03*
X0385000Y0106800D03*
X0410000Y0071800D03*
X0450000Y0071800D03*
X0465000Y0066800D03*
X0465000Y0076800D03*
X0260000Y0101800D03*
X0260000Y0111800D03*
X0380000Y0301800D03*
X0420000Y0301800D03*
D18*
X0280000Y0236800D03*
X0280000Y0231800D03*
X0280000Y0226800D03*
X0280000Y0221800D03*
X0280000Y0216800D03*
D19*
X0279843Y0281800D03*
X0260157Y0281800D03*
X0385157Y0276800D03*
X0404843Y0276800D03*
D20*
X0350000Y0141800D03*
D21*
X0350000Y0131800D03*
D22*
X0150000Y0056800D03*
X0150000Y0066800D03*
X0150000Y0076800D03*
X0150000Y0086800D03*
X0150000Y0096800D03*
X0150000Y0106800D03*
D23*
X0335000Y0301800D03*
X0335000Y0311800D03*
X0335000Y0321800D03*
X0335000Y0331800D03*
X0335000Y0341800D03*
X0335000Y0351800D03*
X0335000Y0361800D03*
X0365000Y0361800D03*
X0365000Y0351800D03*
X0365000Y0341800D03*
X0365000Y0331800D03*
X0365000Y0321800D03*
X0365000Y0311800D03*
X0365000Y0301800D03*
M02*
