G75*
%MOIN*%
%OFA0B0*%
%FSLAX25Y25*%
%IPPOS*%
%LPD*%
%AMOC8*
5,1,8,0,0,1.08239X$1,22.5*
%
%ADD10C,0.00000*%
%ADD11C,0.05600*%
%ADD12R,0.05315X0.01575*%
%ADD13C,0.07382*%
%ADD14C,0.08858*%
%ADD15C,0.07400*%
%ADD16C,0.05943*%
%ADD17OC8,0.05600*%
%ADD18C,0.04400*%
%ADD19C,0.06337*%
%ADD20C,0.06300*%
%ADD21OC8,0.06300*%
%ADD22C,0.05900*%
%ADD23C,0.06400*%
%ADD24C,0.01600*%
%ADD25C,0.03378*%
%ADD26C,0.04000*%
D10*
X0130000Y0001800D02*
X0130000Y0395501D01*
X0523701Y0395501D01*
X0523701Y0001800D01*
X0130000Y0001800D01*
X0508750Y0301800D02*
X0508752Y0301958D01*
X0508758Y0302115D01*
X0508768Y0302273D01*
X0508782Y0302430D01*
X0508800Y0302586D01*
X0508821Y0302743D01*
X0508847Y0302898D01*
X0508877Y0303053D01*
X0508910Y0303207D01*
X0508948Y0303360D01*
X0508989Y0303513D01*
X0509034Y0303664D01*
X0509083Y0303814D01*
X0509136Y0303962D01*
X0509192Y0304110D01*
X0509253Y0304255D01*
X0509316Y0304400D01*
X0509384Y0304542D01*
X0509455Y0304683D01*
X0509529Y0304822D01*
X0509607Y0304959D01*
X0509689Y0305094D01*
X0509773Y0305227D01*
X0509862Y0305358D01*
X0509953Y0305486D01*
X0510048Y0305613D01*
X0510145Y0305736D01*
X0510246Y0305858D01*
X0510350Y0305976D01*
X0510457Y0306092D01*
X0510567Y0306205D01*
X0510679Y0306316D01*
X0510795Y0306423D01*
X0510913Y0306528D01*
X0511033Y0306630D01*
X0511156Y0306728D01*
X0511282Y0306824D01*
X0511410Y0306916D01*
X0511540Y0307005D01*
X0511672Y0307091D01*
X0511807Y0307173D01*
X0511944Y0307252D01*
X0512082Y0307327D01*
X0512222Y0307399D01*
X0512365Y0307467D01*
X0512508Y0307532D01*
X0512654Y0307593D01*
X0512801Y0307650D01*
X0512949Y0307704D01*
X0513099Y0307754D01*
X0513249Y0307800D01*
X0513401Y0307842D01*
X0513554Y0307881D01*
X0513708Y0307915D01*
X0513863Y0307946D01*
X0514018Y0307972D01*
X0514174Y0307995D01*
X0514331Y0308014D01*
X0514488Y0308029D01*
X0514645Y0308040D01*
X0514803Y0308047D01*
X0514961Y0308050D01*
X0515118Y0308049D01*
X0515276Y0308044D01*
X0515433Y0308035D01*
X0515591Y0308022D01*
X0515747Y0308005D01*
X0515904Y0307984D01*
X0516059Y0307960D01*
X0516214Y0307931D01*
X0516369Y0307898D01*
X0516522Y0307862D01*
X0516675Y0307821D01*
X0516826Y0307777D01*
X0516976Y0307729D01*
X0517125Y0307678D01*
X0517273Y0307622D01*
X0517419Y0307563D01*
X0517564Y0307500D01*
X0517707Y0307433D01*
X0517848Y0307363D01*
X0517987Y0307290D01*
X0518125Y0307213D01*
X0518261Y0307132D01*
X0518394Y0307048D01*
X0518525Y0306961D01*
X0518654Y0306870D01*
X0518781Y0306776D01*
X0518906Y0306679D01*
X0519027Y0306579D01*
X0519147Y0306476D01*
X0519263Y0306370D01*
X0519377Y0306261D01*
X0519489Y0306149D01*
X0519597Y0306035D01*
X0519702Y0305917D01*
X0519805Y0305797D01*
X0519904Y0305675D01*
X0520000Y0305550D01*
X0520093Y0305422D01*
X0520183Y0305293D01*
X0520269Y0305161D01*
X0520353Y0305027D01*
X0520432Y0304891D01*
X0520509Y0304753D01*
X0520581Y0304613D01*
X0520650Y0304471D01*
X0520716Y0304328D01*
X0520778Y0304183D01*
X0520836Y0304036D01*
X0520891Y0303888D01*
X0520942Y0303739D01*
X0520989Y0303588D01*
X0521032Y0303437D01*
X0521071Y0303284D01*
X0521107Y0303130D01*
X0521138Y0302976D01*
X0521166Y0302821D01*
X0521190Y0302665D01*
X0521210Y0302508D01*
X0521226Y0302351D01*
X0521238Y0302194D01*
X0521246Y0302037D01*
X0521250Y0301879D01*
X0521250Y0301721D01*
X0521246Y0301563D01*
X0521238Y0301406D01*
X0521226Y0301249D01*
X0521210Y0301092D01*
X0521190Y0300935D01*
X0521166Y0300779D01*
X0521138Y0300624D01*
X0521107Y0300470D01*
X0521071Y0300316D01*
X0521032Y0300163D01*
X0520989Y0300012D01*
X0520942Y0299861D01*
X0520891Y0299712D01*
X0520836Y0299564D01*
X0520778Y0299417D01*
X0520716Y0299272D01*
X0520650Y0299129D01*
X0520581Y0298987D01*
X0520509Y0298847D01*
X0520432Y0298709D01*
X0520353Y0298573D01*
X0520269Y0298439D01*
X0520183Y0298307D01*
X0520093Y0298178D01*
X0520000Y0298050D01*
X0519904Y0297925D01*
X0519805Y0297803D01*
X0519702Y0297683D01*
X0519597Y0297565D01*
X0519489Y0297451D01*
X0519377Y0297339D01*
X0519263Y0297230D01*
X0519147Y0297124D01*
X0519027Y0297021D01*
X0518906Y0296921D01*
X0518781Y0296824D01*
X0518654Y0296730D01*
X0518525Y0296639D01*
X0518394Y0296552D01*
X0518261Y0296468D01*
X0518125Y0296387D01*
X0517987Y0296310D01*
X0517848Y0296237D01*
X0517707Y0296167D01*
X0517564Y0296100D01*
X0517419Y0296037D01*
X0517273Y0295978D01*
X0517125Y0295922D01*
X0516976Y0295871D01*
X0516826Y0295823D01*
X0516675Y0295779D01*
X0516522Y0295738D01*
X0516369Y0295702D01*
X0516214Y0295669D01*
X0516059Y0295640D01*
X0515904Y0295616D01*
X0515747Y0295595D01*
X0515591Y0295578D01*
X0515433Y0295565D01*
X0515276Y0295556D01*
X0515118Y0295551D01*
X0514961Y0295550D01*
X0514803Y0295553D01*
X0514645Y0295560D01*
X0514488Y0295571D01*
X0514331Y0295586D01*
X0514174Y0295605D01*
X0514018Y0295628D01*
X0513863Y0295654D01*
X0513708Y0295685D01*
X0513554Y0295719D01*
X0513401Y0295758D01*
X0513249Y0295800D01*
X0513099Y0295846D01*
X0512949Y0295896D01*
X0512801Y0295950D01*
X0512654Y0296007D01*
X0512508Y0296068D01*
X0512365Y0296133D01*
X0512222Y0296201D01*
X0512082Y0296273D01*
X0511944Y0296348D01*
X0511807Y0296427D01*
X0511672Y0296509D01*
X0511540Y0296595D01*
X0511410Y0296684D01*
X0511282Y0296776D01*
X0511156Y0296872D01*
X0511033Y0296970D01*
X0510913Y0297072D01*
X0510795Y0297177D01*
X0510679Y0297284D01*
X0510567Y0297395D01*
X0510457Y0297508D01*
X0510350Y0297624D01*
X0510246Y0297742D01*
X0510145Y0297864D01*
X0510048Y0297987D01*
X0509953Y0298114D01*
X0509862Y0298242D01*
X0509773Y0298373D01*
X0509689Y0298506D01*
X0509607Y0298641D01*
X0509529Y0298778D01*
X0509455Y0298917D01*
X0509384Y0299058D01*
X0509316Y0299200D01*
X0509253Y0299345D01*
X0509192Y0299490D01*
X0509136Y0299638D01*
X0509083Y0299786D01*
X0509034Y0299936D01*
X0508989Y0300087D01*
X0508948Y0300240D01*
X0508910Y0300393D01*
X0508877Y0300547D01*
X0508847Y0300702D01*
X0508821Y0300857D01*
X0508800Y0301014D01*
X0508782Y0301170D01*
X0508768Y0301327D01*
X0508758Y0301485D01*
X0508752Y0301642D01*
X0508750Y0301800D01*
X0508750Y0381800D02*
X0508752Y0381958D01*
X0508758Y0382115D01*
X0508768Y0382273D01*
X0508782Y0382430D01*
X0508800Y0382586D01*
X0508821Y0382743D01*
X0508847Y0382898D01*
X0508877Y0383053D01*
X0508910Y0383207D01*
X0508948Y0383360D01*
X0508989Y0383513D01*
X0509034Y0383664D01*
X0509083Y0383814D01*
X0509136Y0383962D01*
X0509192Y0384110D01*
X0509253Y0384255D01*
X0509316Y0384400D01*
X0509384Y0384542D01*
X0509455Y0384683D01*
X0509529Y0384822D01*
X0509607Y0384959D01*
X0509689Y0385094D01*
X0509773Y0385227D01*
X0509862Y0385358D01*
X0509953Y0385486D01*
X0510048Y0385613D01*
X0510145Y0385736D01*
X0510246Y0385858D01*
X0510350Y0385976D01*
X0510457Y0386092D01*
X0510567Y0386205D01*
X0510679Y0386316D01*
X0510795Y0386423D01*
X0510913Y0386528D01*
X0511033Y0386630D01*
X0511156Y0386728D01*
X0511282Y0386824D01*
X0511410Y0386916D01*
X0511540Y0387005D01*
X0511672Y0387091D01*
X0511807Y0387173D01*
X0511944Y0387252D01*
X0512082Y0387327D01*
X0512222Y0387399D01*
X0512365Y0387467D01*
X0512508Y0387532D01*
X0512654Y0387593D01*
X0512801Y0387650D01*
X0512949Y0387704D01*
X0513099Y0387754D01*
X0513249Y0387800D01*
X0513401Y0387842D01*
X0513554Y0387881D01*
X0513708Y0387915D01*
X0513863Y0387946D01*
X0514018Y0387972D01*
X0514174Y0387995D01*
X0514331Y0388014D01*
X0514488Y0388029D01*
X0514645Y0388040D01*
X0514803Y0388047D01*
X0514961Y0388050D01*
X0515118Y0388049D01*
X0515276Y0388044D01*
X0515433Y0388035D01*
X0515591Y0388022D01*
X0515747Y0388005D01*
X0515904Y0387984D01*
X0516059Y0387960D01*
X0516214Y0387931D01*
X0516369Y0387898D01*
X0516522Y0387862D01*
X0516675Y0387821D01*
X0516826Y0387777D01*
X0516976Y0387729D01*
X0517125Y0387678D01*
X0517273Y0387622D01*
X0517419Y0387563D01*
X0517564Y0387500D01*
X0517707Y0387433D01*
X0517848Y0387363D01*
X0517987Y0387290D01*
X0518125Y0387213D01*
X0518261Y0387132D01*
X0518394Y0387048D01*
X0518525Y0386961D01*
X0518654Y0386870D01*
X0518781Y0386776D01*
X0518906Y0386679D01*
X0519027Y0386579D01*
X0519147Y0386476D01*
X0519263Y0386370D01*
X0519377Y0386261D01*
X0519489Y0386149D01*
X0519597Y0386035D01*
X0519702Y0385917D01*
X0519805Y0385797D01*
X0519904Y0385675D01*
X0520000Y0385550D01*
X0520093Y0385422D01*
X0520183Y0385293D01*
X0520269Y0385161D01*
X0520353Y0385027D01*
X0520432Y0384891D01*
X0520509Y0384753D01*
X0520581Y0384613D01*
X0520650Y0384471D01*
X0520716Y0384328D01*
X0520778Y0384183D01*
X0520836Y0384036D01*
X0520891Y0383888D01*
X0520942Y0383739D01*
X0520989Y0383588D01*
X0521032Y0383437D01*
X0521071Y0383284D01*
X0521107Y0383130D01*
X0521138Y0382976D01*
X0521166Y0382821D01*
X0521190Y0382665D01*
X0521210Y0382508D01*
X0521226Y0382351D01*
X0521238Y0382194D01*
X0521246Y0382037D01*
X0521250Y0381879D01*
X0521250Y0381721D01*
X0521246Y0381563D01*
X0521238Y0381406D01*
X0521226Y0381249D01*
X0521210Y0381092D01*
X0521190Y0380935D01*
X0521166Y0380779D01*
X0521138Y0380624D01*
X0521107Y0380470D01*
X0521071Y0380316D01*
X0521032Y0380163D01*
X0520989Y0380012D01*
X0520942Y0379861D01*
X0520891Y0379712D01*
X0520836Y0379564D01*
X0520778Y0379417D01*
X0520716Y0379272D01*
X0520650Y0379129D01*
X0520581Y0378987D01*
X0520509Y0378847D01*
X0520432Y0378709D01*
X0520353Y0378573D01*
X0520269Y0378439D01*
X0520183Y0378307D01*
X0520093Y0378178D01*
X0520000Y0378050D01*
X0519904Y0377925D01*
X0519805Y0377803D01*
X0519702Y0377683D01*
X0519597Y0377565D01*
X0519489Y0377451D01*
X0519377Y0377339D01*
X0519263Y0377230D01*
X0519147Y0377124D01*
X0519027Y0377021D01*
X0518906Y0376921D01*
X0518781Y0376824D01*
X0518654Y0376730D01*
X0518525Y0376639D01*
X0518394Y0376552D01*
X0518261Y0376468D01*
X0518125Y0376387D01*
X0517987Y0376310D01*
X0517848Y0376237D01*
X0517707Y0376167D01*
X0517564Y0376100D01*
X0517419Y0376037D01*
X0517273Y0375978D01*
X0517125Y0375922D01*
X0516976Y0375871D01*
X0516826Y0375823D01*
X0516675Y0375779D01*
X0516522Y0375738D01*
X0516369Y0375702D01*
X0516214Y0375669D01*
X0516059Y0375640D01*
X0515904Y0375616D01*
X0515747Y0375595D01*
X0515591Y0375578D01*
X0515433Y0375565D01*
X0515276Y0375556D01*
X0515118Y0375551D01*
X0514961Y0375550D01*
X0514803Y0375553D01*
X0514645Y0375560D01*
X0514488Y0375571D01*
X0514331Y0375586D01*
X0514174Y0375605D01*
X0514018Y0375628D01*
X0513863Y0375654D01*
X0513708Y0375685D01*
X0513554Y0375719D01*
X0513401Y0375758D01*
X0513249Y0375800D01*
X0513099Y0375846D01*
X0512949Y0375896D01*
X0512801Y0375950D01*
X0512654Y0376007D01*
X0512508Y0376068D01*
X0512365Y0376133D01*
X0512222Y0376201D01*
X0512082Y0376273D01*
X0511944Y0376348D01*
X0511807Y0376427D01*
X0511672Y0376509D01*
X0511540Y0376595D01*
X0511410Y0376684D01*
X0511282Y0376776D01*
X0511156Y0376872D01*
X0511033Y0376970D01*
X0510913Y0377072D01*
X0510795Y0377177D01*
X0510679Y0377284D01*
X0510567Y0377395D01*
X0510457Y0377508D01*
X0510350Y0377624D01*
X0510246Y0377742D01*
X0510145Y0377864D01*
X0510048Y0377987D01*
X0509953Y0378114D01*
X0509862Y0378242D01*
X0509773Y0378373D01*
X0509689Y0378506D01*
X0509607Y0378641D01*
X0509529Y0378778D01*
X0509455Y0378917D01*
X0509384Y0379058D01*
X0509316Y0379200D01*
X0509253Y0379345D01*
X0509192Y0379490D01*
X0509136Y0379638D01*
X0509083Y0379786D01*
X0509034Y0379936D01*
X0508989Y0380087D01*
X0508948Y0380240D01*
X0508910Y0380393D01*
X0508877Y0380547D01*
X0508847Y0380702D01*
X0508821Y0380857D01*
X0508800Y0381014D01*
X0508782Y0381170D01*
X0508768Y0381327D01*
X0508758Y0381485D01*
X0508752Y0381642D01*
X0508750Y0381800D01*
X0133750Y0376800D02*
X0133752Y0376958D01*
X0133758Y0377115D01*
X0133768Y0377273D01*
X0133782Y0377430D01*
X0133800Y0377586D01*
X0133821Y0377743D01*
X0133847Y0377898D01*
X0133877Y0378053D01*
X0133910Y0378207D01*
X0133948Y0378360D01*
X0133989Y0378513D01*
X0134034Y0378664D01*
X0134083Y0378814D01*
X0134136Y0378962D01*
X0134192Y0379110D01*
X0134253Y0379255D01*
X0134316Y0379400D01*
X0134384Y0379542D01*
X0134455Y0379683D01*
X0134529Y0379822D01*
X0134607Y0379959D01*
X0134689Y0380094D01*
X0134773Y0380227D01*
X0134862Y0380358D01*
X0134953Y0380486D01*
X0135048Y0380613D01*
X0135145Y0380736D01*
X0135246Y0380858D01*
X0135350Y0380976D01*
X0135457Y0381092D01*
X0135567Y0381205D01*
X0135679Y0381316D01*
X0135795Y0381423D01*
X0135913Y0381528D01*
X0136033Y0381630D01*
X0136156Y0381728D01*
X0136282Y0381824D01*
X0136410Y0381916D01*
X0136540Y0382005D01*
X0136672Y0382091D01*
X0136807Y0382173D01*
X0136944Y0382252D01*
X0137082Y0382327D01*
X0137222Y0382399D01*
X0137365Y0382467D01*
X0137508Y0382532D01*
X0137654Y0382593D01*
X0137801Y0382650D01*
X0137949Y0382704D01*
X0138099Y0382754D01*
X0138249Y0382800D01*
X0138401Y0382842D01*
X0138554Y0382881D01*
X0138708Y0382915D01*
X0138863Y0382946D01*
X0139018Y0382972D01*
X0139174Y0382995D01*
X0139331Y0383014D01*
X0139488Y0383029D01*
X0139645Y0383040D01*
X0139803Y0383047D01*
X0139961Y0383050D01*
X0140118Y0383049D01*
X0140276Y0383044D01*
X0140433Y0383035D01*
X0140591Y0383022D01*
X0140747Y0383005D01*
X0140904Y0382984D01*
X0141059Y0382960D01*
X0141214Y0382931D01*
X0141369Y0382898D01*
X0141522Y0382862D01*
X0141675Y0382821D01*
X0141826Y0382777D01*
X0141976Y0382729D01*
X0142125Y0382678D01*
X0142273Y0382622D01*
X0142419Y0382563D01*
X0142564Y0382500D01*
X0142707Y0382433D01*
X0142848Y0382363D01*
X0142987Y0382290D01*
X0143125Y0382213D01*
X0143261Y0382132D01*
X0143394Y0382048D01*
X0143525Y0381961D01*
X0143654Y0381870D01*
X0143781Y0381776D01*
X0143906Y0381679D01*
X0144027Y0381579D01*
X0144147Y0381476D01*
X0144263Y0381370D01*
X0144377Y0381261D01*
X0144489Y0381149D01*
X0144597Y0381035D01*
X0144702Y0380917D01*
X0144805Y0380797D01*
X0144904Y0380675D01*
X0145000Y0380550D01*
X0145093Y0380422D01*
X0145183Y0380293D01*
X0145269Y0380161D01*
X0145353Y0380027D01*
X0145432Y0379891D01*
X0145509Y0379753D01*
X0145581Y0379613D01*
X0145650Y0379471D01*
X0145716Y0379328D01*
X0145778Y0379183D01*
X0145836Y0379036D01*
X0145891Y0378888D01*
X0145942Y0378739D01*
X0145989Y0378588D01*
X0146032Y0378437D01*
X0146071Y0378284D01*
X0146107Y0378130D01*
X0146138Y0377976D01*
X0146166Y0377821D01*
X0146190Y0377665D01*
X0146210Y0377508D01*
X0146226Y0377351D01*
X0146238Y0377194D01*
X0146246Y0377037D01*
X0146250Y0376879D01*
X0146250Y0376721D01*
X0146246Y0376563D01*
X0146238Y0376406D01*
X0146226Y0376249D01*
X0146210Y0376092D01*
X0146190Y0375935D01*
X0146166Y0375779D01*
X0146138Y0375624D01*
X0146107Y0375470D01*
X0146071Y0375316D01*
X0146032Y0375163D01*
X0145989Y0375012D01*
X0145942Y0374861D01*
X0145891Y0374712D01*
X0145836Y0374564D01*
X0145778Y0374417D01*
X0145716Y0374272D01*
X0145650Y0374129D01*
X0145581Y0373987D01*
X0145509Y0373847D01*
X0145432Y0373709D01*
X0145353Y0373573D01*
X0145269Y0373439D01*
X0145183Y0373307D01*
X0145093Y0373178D01*
X0145000Y0373050D01*
X0144904Y0372925D01*
X0144805Y0372803D01*
X0144702Y0372683D01*
X0144597Y0372565D01*
X0144489Y0372451D01*
X0144377Y0372339D01*
X0144263Y0372230D01*
X0144147Y0372124D01*
X0144027Y0372021D01*
X0143906Y0371921D01*
X0143781Y0371824D01*
X0143654Y0371730D01*
X0143525Y0371639D01*
X0143394Y0371552D01*
X0143261Y0371468D01*
X0143125Y0371387D01*
X0142987Y0371310D01*
X0142848Y0371237D01*
X0142707Y0371167D01*
X0142564Y0371100D01*
X0142419Y0371037D01*
X0142273Y0370978D01*
X0142125Y0370922D01*
X0141976Y0370871D01*
X0141826Y0370823D01*
X0141675Y0370779D01*
X0141522Y0370738D01*
X0141369Y0370702D01*
X0141214Y0370669D01*
X0141059Y0370640D01*
X0140904Y0370616D01*
X0140747Y0370595D01*
X0140591Y0370578D01*
X0140433Y0370565D01*
X0140276Y0370556D01*
X0140118Y0370551D01*
X0139961Y0370550D01*
X0139803Y0370553D01*
X0139645Y0370560D01*
X0139488Y0370571D01*
X0139331Y0370586D01*
X0139174Y0370605D01*
X0139018Y0370628D01*
X0138863Y0370654D01*
X0138708Y0370685D01*
X0138554Y0370719D01*
X0138401Y0370758D01*
X0138249Y0370800D01*
X0138099Y0370846D01*
X0137949Y0370896D01*
X0137801Y0370950D01*
X0137654Y0371007D01*
X0137508Y0371068D01*
X0137365Y0371133D01*
X0137222Y0371201D01*
X0137082Y0371273D01*
X0136944Y0371348D01*
X0136807Y0371427D01*
X0136672Y0371509D01*
X0136540Y0371595D01*
X0136410Y0371684D01*
X0136282Y0371776D01*
X0136156Y0371872D01*
X0136033Y0371970D01*
X0135913Y0372072D01*
X0135795Y0372177D01*
X0135679Y0372284D01*
X0135567Y0372395D01*
X0135457Y0372508D01*
X0135350Y0372624D01*
X0135246Y0372742D01*
X0135145Y0372864D01*
X0135048Y0372987D01*
X0134953Y0373114D01*
X0134862Y0373242D01*
X0134773Y0373373D01*
X0134689Y0373506D01*
X0134607Y0373641D01*
X0134529Y0373778D01*
X0134455Y0373917D01*
X0134384Y0374058D01*
X0134316Y0374200D01*
X0134253Y0374345D01*
X0134192Y0374490D01*
X0134136Y0374638D01*
X0134083Y0374786D01*
X0134034Y0374936D01*
X0133989Y0375087D01*
X0133948Y0375240D01*
X0133910Y0375393D01*
X0133877Y0375547D01*
X0133847Y0375702D01*
X0133821Y0375857D01*
X0133800Y0376014D01*
X0133782Y0376170D01*
X0133768Y0376327D01*
X0133758Y0376485D01*
X0133752Y0376642D01*
X0133750Y0376800D01*
X0133750Y0306800D02*
X0133752Y0306958D01*
X0133758Y0307115D01*
X0133768Y0307273D01*
X0133782Y0307430D01*
X0133800Y0307586D01*
X0133821Y0307743D01*
X0133847Y0307898D01*
X0133877Y0308053D01*
X0133910Y0308207D01*
X0133948Y0308360D01*
X0133989Y0308513D01*
X0134034Y0308664D01*
X0134083Y0308814D01*
X0134136Y0308962D01*
X0134192Y0309110D01*
X0134253Y0309255D01*
X0134316Y0309400D01*
X0134384Y0309542D01*
X0134455Y0309683D01*
X0134529Y0309822D01*
X0134607Y0309959D01*
X0134689Y0310094D01*
X0134773Y0310227D01*
X0134862Y0310358D01*
X0134953Y0310486D01*
X0135048Y0310613D01*
X0135145Y0310736D01*
X0135246Y0310858D01*
X0135350Y0310976D01*
X0135457Y0311092D01*
X0135567Y0311205D01*
X0135679Y0311316D01*
X0135795Y0311423D01*
X0135913Y0311528D01*
X0136033Y0311630D01*
X0136156Y0311728D01*
X0136282Y0311824D01*
X0136410Y0311916D01*
X0136540Y0312005D01*
X0136672Y0312091D01*
X0136807Y0312173D01*
X0136944Y0312252D01*
X0137082Y0312327D01*
X0137222Y0312399D01*
X0137365Y0312467D01*
X0137508Y0312532D01*
X0137654Y0312593D01*
X0137801Y0312650D01*
X0137949Y0312704D01*
X0138099Y0312754D01*
X0138249Y0312800D01*
X0138401Y0312842D01*
X0138554Y0312881D01*
X0138708Y0312915D01*
X0138863Y0312946D01*
X0139018Y0312972D01*
X0139174Y0312995D01*
X0139331Y0313014D01*
X0139488Y0313029D01*
X0139645Y0313040D01*
X0139803Y0313047D01*
X0139961Y0313050D01*
X0140118Y0313049D01*
X0140276Y0313044D01*
X0140433Y0313035D01*
X0140591Y0313022D01*
X0140747Y0313005D01*
X0140904Y0312984D01*
X0141059Y0312960D01*
X0141214Y0312931D01*
X0141369Y0312898D01*
X0141522Y0312862D01*
X0141675Y0312821D01*
X0141826Y0312777D01*
X0141976Y0312729D01*
X0142125Y0312678D01*
X0142273Y0312622D01*
X0142419Y0312563D01*
X0142564Y0312500D01*
X0142707Y0312433D01*
X0142848Y0312363D01*
X0142987Y0312290D01*
X0143125Y0312213D01*
X0143261Y0312132D01*
X0143394Y0312048D01*
X0143525Y0311961D01*
X0143654Y0311870D01*
X0143781Y0311776D01*
X0143906Y0311679D01*
X0144027Y0311579D01*
X0144147Y0311476D01*
X0144263Y0311370D01*
X0144377Y0311261D01*
X0144489Y0311149D01*
X0144597Y0311035D01*
X0144702Y0310917D01*
X0144805Y0310797D01*
X0144904Y0310675D01*
X0145000Y0310550D01*
X0145093Y0310422D01*
X0145183Y0310293D01*
X0145269Y0310161D01*
X0145353Y0310027D01*
X0145432Y0309891D01*
X0145509Y0309753D01*
X0145581Y0309613D01*
X0145650Y0309471D01*
X0145716Y0309328D01*
X0145778Y0309183D01*
X0145836Y0309036D01*
X0145891Y0308888D01*
X0145942Y0308739D01*
X0145989Y0308588D01*
X0146032Y0308437D01*
X0146071Y0308284D01*
X0146107Y0308130D01*
X0146138Y0307976D01*
X0146166Y0307821D01*
X0146190Y0307665D01*
X0146210Y0307508D01*
X0146226Y0307351D01*
X0146238Y0307194D01*
X0146246Y0307037D01*
X0146250Y0306879D01*
X0146250Y0306721D01*
X0146246Y0306563D01*
X0146238Y0306406D01*
X0146226Y0306249D01*
X0146210Y0306092D01*
X0146190Y0305935D01*
X0146166Y0305779D01*
X0146138Y0305624D01*
X0146107Y0305470D01*
X0146071Y0305316D01*
X0146032Y0305163D01*
X0145989Y0305012D01*
X0145942Y0304861D01*
X0145891Y0304712D01*
X0145836Y0304564D01*
X0145778Y0304417D01*
X0145716Y0304272D01*
X0145650Y0304129D01*
X0145581Y0303987D01*
X0145509Y0303847D01*
X0145432Y0303709D01*
X0145353Y0303573D01*
X0145269Y0303439D01*
X0145183Y0303307D01*
X0145093Y0303178D01*
X0145000Y0303050D01*
X0144904Y0302925D01*
X0144805Y0302803D01*
X0144702Y0302683D01*
X0144597Y0302565D01*
X0144489Y0302451D01*
X0144377Y0302339D01*
X0144263Y0302230D01*
X0144147Y0302124D01*
X0144027Y0302021D01*
X0143906Y0301921D01*
X0143781Y0301824D01*
X0143654Y0301730D01*
X0143525Y0301639D01*
X0143394Y0301552D01*
X0143261Y0301468D01*
X0143125Y0301387D01*
X0142987Y0301310D01*
X0142848Y0301237D01*
X0142707Y0301167D01*
X0142564Y0301100D01*
X0142419Y0301037D01*
X0142273Y0300978D01*
X0142125Y0300922D01*
X0141976Y0300871D01*
X0141826Y0300823D01*
X0141675Y0300779D01*
X0141522Y0300738D01*
X0141369Y0300702D01*
X0141214Y0300669D01*
X0141059Y0300640D01*
X0140904Y0300616D01*
X0140747Y0300595D01*
X0140591Y0300578D01*
X0140433Y0300565D01*
X0140276Y0300556D01*
X0140118Y0300551D01*
X0139961Y0300550D01*
X0139803Y0300553D01*
X0139645Y0300560D01*
X0139488Y0300571D01*
X0139331Y0300586D01*
X0139174Y0300605D01*
X0139018Y0300628D01*
X0138863Y0300654D01*
X0138708Y0300685D01*
X0138554Y0300719D01*
X0138401Y0300758D01*
X0138249Y0300800D01*
X0138099Y0300846D01*
X0137949Y0300896D01*
X0137801Y0300950D01*
X0137654Y0301007D01*
X0137508Y0301068D01*
X0137365Y0301133D01*
X0137222Y0301201D01*
X0137082Y0301273D01*
X0136944Y0301348D01*
X0136807Y0301427D01*
X0136672Y0301509D01*
X0136540Y0301595D01*
X0136410Y0301684D01*
X0136282Y0301776D01*
X0136156Y0301872D01*
X0136033Y0301970D01*
X0135913Y0302072D01*
X0135795Y0302177D01*
X0135679Y0302284D01*
X0135567Y0302395D01*
X0135457Y0302508D01*
X0135350Y0302624D01*
X0135246Y0302742D01*
X0135145Y0302864D01*
X0135048Y0302987D01*
X0134953Y0303114D01*
X0134862Y0303242D01*
X0134773Y0303373D01*
X0134689Y0303506D01*
X0134607Y0303641D01*
X0134529Y0303778D01*
X0134455Y0303917D01*
X0134384Y0304058D01*
X0134316Y0304200D01*
X0134253Y0304345D01*
X0134192Y0304490D01*
X0134136Y0304638D01*
X0134083Y0304786D01*
X0134034Y0304936D01*
X0133989Y0305087D01*
X0133948Y0305240D01*
X0133910Y0305393D01*
X0133877Y0305547D01*
X0133847Y0305702D01*
X0133821Y0305857D01*
X0133800Y0306014D01*
X0133782Y0306170D01*
X0133768Y0306327D01*
X0133758Y0306485D01*
X0133752Y0306642D01*
X0133750Y0306800D01*
D11*
X0297200Y0231800D02*
X0302800Y0231800D01*
X0302800Y0221800D02*
X0297200Y0221800D01*
X0297200Y0211800D02*
X0302800Y0211800D01*
X0302800Y0201800D02*
X0297200Y0201800D01*
X0297200Y0191800D02*
X0302800Y0191800D01*
X0302800Y0181800D02*
X0297200Y0181800D01*
X0297200Y0171800D02*
X0302800Y0171800D01*
X0302800Y0161800D02*
X0297200Y0161800D01*
X0297200Y0151800D02*
X0302800Y0151800D01*
X0302800Y0141800D02*
X0297200Y0141800D01*
X0297200Y0131800D02*
X0302800Y0131800D01*
X0302800Y0121800D02*
X0297200Y0121800D01*
X0297200Y0111800D02*
X0302800Y0111800D01*
X0302800Y0101800D02*
X0297200Y0101800D01*
X0327200Y0101800D02*
X0332800Y0101800D01*
X0332800Y0111800D02*
X0327200Y0111800D01*
X0327200Y0121800D02*
X0332800Y0121800D01*
X0332800Y0131800D02*
X0327200Y0131800D01*
X0327200Y0141800D02*
X0332800Y0141800D01*
X0332800Y0151800D02*
X0327200Y0151800D01*
X0327200Y0161800D02*
X0332800Y0161800D01*
X0332800Y0171800D02*
X0327200Y0171800D01*
X0327200Y0181800D02*
X0332800Y0181800D01*
X0332800Y0191800D02*
X0327200Y0191800D01*
X0327200Y0201800D02*
X0332800Y0201800D01*
X0332800Y0211800D02*
X0327200Y0211800D01*
X0327200Y0221800D02*
X0332800Y0221800D01*
X0332800Y0231800D02*
X0327200Y0231800D01*
X0437200Y0231800D02*
X0442800Y0231800D01*
X0442800Y0221800D02*
X0437200Y0221800D01*
X0437200Y0211800D02*
X0442800Y0211800D01*
X0442800Y0201800D02*
X0437200Y0201800D01*
X0437200Y0191800D02*
X0442800Y0191800D01*
X0442800Y0181800D02*
X0437200Y0181800D01*
X0437200Y0171800D02*
X0442800Y0171800D01*
X0442800Y0161800D02*
X0437200Y0161800D01*
X0437200Y0151800D02*
X0442800Y0151800D01*
X0442800Y0141800D02*
X0437200Y0141800D01*
X0437200Y0131800D02*
X0442800Y0131800D01*
X0442800Y0121800D02*
X0437200Y0121800D01*
X0437200Y0111800D02*
X0442800Y0111800D01*
X0442800Y0101800D02*
X0437200Y0101800D01*
X0467200Y0101800D02*
X0472800Y0101800D01*
X0472800Y0111800D02*
X0467200Y0111800D01*
X0467200Y0121800D02*
X0472800Y0121800D01*
X0472800Y0131800D02*
X0467200Y0131800D01*
X0467200Y0141800D02*
X0472800Y0141800D01*
X0472800Y0151800D02*
X0467200Y0151800D01*
X0467200Y0161800D02*
X0472800Y0161800D01*
X0472800Y0171800D02*
X0467200Y0171800D01*
X0467200Y0181800D02*
X0472800Y0181800D01*
X0472800Y0191800D02*
X0467200Y0191800D01*
X0467200Y0201800D02*
X0472800Y0201800D01*
X0472800Y0211800D02*
X0467200Y0211800D01*
X0467200Y0221800D02*
X0472800Y0221800D01*
X0472800Y0231800D02*
X0467200Y0231800D01*
D12*
X0154130Y0266682D03*
X0154130Y0269241D03*
X0154130Y0271800D03*
X0154130Y0274359D03*
X0154130Y0276918D03*
D13*
X0154130Y0281643D03*
X0154130Y0261957D03*
D14*
X0143500Y0258020D03*
X0143500Y0285580D03*
D15*
X0170000Y0236800D03*
X0180000Y0236800D03*
X0190000Y0236800D03*
X0200000Y0236800D03*
X0145000Y0176800D03*
X0145000Y0166800D03*
X0167500Y0112800D03*
X0167500Y0102800D03*
X0167500Y0092800D03*
X0167500Y0082800D03*
X0167500Y0072800D03*
X0167500Y0062800D03*
X0167500Y0052800D03*
X0167500Y0042800D03*
X0235000Y0041800D03*
X0235000Y0051800D03*
X0245000Y0051800D03*
X0245000Y0041800D03*
X0245000Y0031800D03*
X0245000Y0021800D03*
X0235000Y0021800D03*
X0235000Y0031800D03*
X0235000Y0011800D03*
X0245000Y0011800D03*
X0265000Y0011800D03*
X0275000Y0011800D03*
X0285000Y0011800D03*
X0295000Y0011800D03*
X0305000Y0011800D03*
X0315000Y0011800D03*
X0325000Y0011800D03*
X0335000Y0011800D03*
X0345000Y0011800D03*
X0355000Y0011800D03*
X0355000Y0021800D03*
X0355000Y0031800D03*
X0345000Y0031800D03*
X0345000Y0021800D03*
X0335000Y0021800D03*
X0335000Y0031800D03*
X0325000Y0031800D03*
X0325000Y0021800D03*
X0315000Y0021800D03*
X0315000Y0031800D03*
X0305000Y0031800D03*
X0305000Y0021800D03*
X0295000Y0021800D03*
X0285000Y0021800D03*
X0285000Y0031800D03*
X0295000Y0031800D03*
X0295000Y0041800D03*
X0285000Y0041800D03*
X0285000Y0051800D03*
X0295000Y0051800D03*
X0305000Y0051800D03*
X0305000Y0041800D03*
X0315000Y0041800D03*
X0315000Y0051800D03*
X0325000Y0051800D03*
X0325000Y0041800D03*
X0335000Y0041800D03*
X0335000Y0051800D03*
X0345000Y0051800D03*
X0345000Y0041800D03*
X0355000Y0041800D03*
X0355000Y0051800D03*
X0355000Y0061800D03*
X0345000Y0061800D03*
X0335000Y0061800D03*
X0325000Y0061800D03*
X0315000Y0061800D03*
X0305000Y0061800D03*
X0295000Y0061800D03*
X0285000Y0061800D03*
X0275000Y0061800D03*
X0265000Y0061800D03*
X0265000Y0051800D03*
X0265000Y0041800D03*
X0275000Y0041800D03*
X0275000Y0051800D03*
X0275000Y0031800D03*
X0275000Y0021800D03*
X0265000Y0021800D03*
X0265000Y0031800D03*
X0245000Y0061800D03*
X0235000Y0061800D03*
X0235000Y0071800D03*
X0235000Y0081800D03*
X0245000Y0081800D03*
X0245000Y0071800D03*
X0265000Y0071800D03*
X0265000Y0081800D03*
X0275000Y0081800D03*
X0275000Y0071800D03*
X0285000Y0071800D03*
X0295000Y0071800D03*
X0295000Y0081800D03*
X0285000Y0081800D03*
X0305000Y0081800D03*
X0305000Y0071800D03*
X0315000Y0071800D03*
X0315000Y0081800D03*
X0325000Y0081800D03*
X0325000Y0071800D03*
X0335000Y0071800D03*
X0335000Y0081800D03*
X0345000Y0081800D03*
X0345000Y0071800D03*
X0355000Y0071800D03*
X0355000Y0081800D03*
X0375000Y0081800D03*
X0375000Y0071800D03*
X0385000Y0071800D03*
X0385000Y0081800D03*
X0385000Y0061800D03*
X0375000Y0061800D03*
X0375000Y0051800D03*
X0375000Y0041800D03*
X0385000Y0041800D03*
X0385000Y0051800D03*
X0385000Y0031800D03*
X0385000Y0021800D03*
X0375000Y0021800D03*
X0375000Y0031800D03*
X0375000Y0011800D03*
X0385000Y0011800D03*
X0305000Y0311800D03*
X0305000Y0321800D03*
X0305000Y0341800D03*
X0305000Y0351800D03*
D16*
X0150000Y0226643D03*
X0150000Y0216800D03*
X0150000Y0206957D03*
D17*
X0200000Y0256800D03*
X0175000Y0276800D03*
X0175000Y0286800D03*
X0200000Y0296800D03*
X0245000Y0291800D03*
X0245000Y0251800D03*
X0355000Y0231800D03*
X0355000Y0221800D03*
X0385000Y0146800D03*
X0400000Y0146800D03*
X0420000Y0141800D03*
X0420000Y0131800D03*
X0400000Y0106800D03*
X0385000Y0106800D03*
X0410000Y0071800D03*
X0450000Y0071800D03*
X0465000Y0066800D03*
X0465000Y0076800D03*
X0260000Y0101800D03*
X0260000Y0111800D03*
X0380000Y0301800D03*
X0420000Y0301800D03*
D18*
X0280000Y0236800D03*
X0280000Y0231800D03*
X0280000Y0226800D03*
X0280000Y0221800D03*
X0280000Y0216800D03*
D19*
X0279843Y0281800D03*
X0260157Y0281800D03*
X0385157Y0276800D03*
X0404843Y0276800D03*
D20*
X0350000Y0141800D03*
D21*
X0350000Y0131800D03*
D22*
X0150000Y0106800D03*
X0150000Y0096800D03*
X0150000Y0086800D03*
X0150000Y0076800D03*
X0150000Y0066800D03*
X0150000Y0056800D03*
D23*
X0335000Y0301800D03*
X0335000Y0311800D03*
X0335000Y0321800D03*
X0335000Y0331800D03*
X0335000Y0341800D03*
X0335000Y0351800D03*
X0335000Y0361800D03*
X0365000Y0361800D03*
X0365000Y0351800D03*
X0365000Y0341800D03*
X0365000Y0331800D03*
X0365000Y0321800D03*
X0365000Y0311800D03*
X0365000Y0301800D03*
D24*
X0360000Y0301800D01*
X0350000Y0311800D01*
X0350000Y0346800D01*
X0355000Y0351800D01*
X0365000Y0351800D01*
X0365000Y0341800D02*
X0395000Y0341800D01*
X0490000Y0246800D01*
X0490000Y0201800D01*
X0470000Y0201800D01*
X0470000Y0191800D02*
X0485000Y0191800D01*
X0470000Y0181800D02*
X0465000Y0181800D01*
X0460000Y0186800D01*
X0460000Y0196800D01*
X0450000Y0206800D01*
X0410000Y0206800D01*
X0375000Y0241800D01*
X0375000Y0316800D01*
X0370000Y0321800D01*
X0365000Y0321800D01*
X0365000Y0311800D02*
X0371000Y0305800D01*
X0371000Y0240800D01*
X0415000Y0196800D01*
X0450000Y0196800D01*
X0455000Y0191800D01*
X0455000Y0176800D01*
X0460000Y0171800D01*
X0470000Y0171800D01*
X0470000Y0161800D02*
X0475000Y0161800D01*
X0485000Y0151800D01*
X0485000Y0086800D01*
X0465000Y0066800D01*
X0465000Y0076800D02*
X0455000Y0076800D01*
X0450000Y0071800D01*
X0455000Y0091800D02*
X0415000Y0091800D01*
X0400000Y0106800D01*
X0385000Y0106800D01*
X0370000Y0091800D01*
X0315000Y0091800D01*
X0315000Y0081800D02*
X0325000Y0081800D01*
X0335000Y0081800D01*
X0345000Y0081800D01*
X0355000Y0081800D01*
X0355000Y0071800D02*
X0345000Y0071800D01*
X0335000Y0071800D01*
X0325000Y0071800D01*
X0315000Y0071800D01*
X0305000Y0071800D02*
X0295000Y0071800D01*
X0285000Y0071800D01*
X0275000Y0071800D01*
X0265000Y0071800D01*
X0265000Y0081800D02*
X0275000Y0081800D01*
X0285000Y0081800D01*
X0295000Y0081800D01*
X0305000Y0081800D01*
X0305000Y0061800D02*
X0295000Y0061800D01*
X0285000Y0061800D01*
X0275000Y0061800D01*
X0265000Y0061800D01*
X0265000Y0051800D02*
X0275000Y0051800D01*
X0285000Y0051800D01*
X0295000Y0051800D01*
X0305000Y0051800D01*
X0305000Y0041800D02*
X0295000Y0041800D01*
X0285000Y0041800D01*
X0275000Y0041800D01*
X0265000Y0041800D01*
X0265000Y0031800D02*
X0275000Y0031800D01*
X0285000Y0031800D01*
X0295000Y0031800D01*
X0305000Y0031800D01*
X0305000Y0021800D02*
X0295000Y0021800D01*
X0285000Y0021800D01*
X0275000Y0021800D01*
X0265000Y0021800D01*
X0265000Y0011800D02*
X0275000Y0011800D01*
X0285000Y0011800D01*
X0295000Y0011800D01*
X0305000Y0011800D01*
X0315000Y0011800D02*
X0325000Y0011800D01*
X0335000Y0011800D01*
X0345000Y0011800D01*
X0355000Y0011800D01*
X0355000Y0021800D02*
X0345000Y0021800D01*
X0335000Y0021800D01*
X0325000Y0021800D01*
X0315000Y0021800D01*
X0315000Y0031800D02*
X0325000Y0031800D01*
X0335000Y0031800D01*
X0345000Y0031800D01*
X0355000Y0031800D01*
X0355000Y0041800D02*
X0345000Y0041800D01*
X0335000Y0041800D01*
X0325000Y0041800D01*
X0315000Y0041800D01*
X0315000Y0051800D02*
X0325000Y0051800D01*
X0335000Y0051800D01*
X0345000Y0051800D01*
X0355000Y0051800D01*
X0355000Y0061800D02*
X0345000Y0061800D01*
X0335000Y0061800D01*
X0325000Y0061800D01*
X0315000Y0061800D01*
X0290000Y0101800D02*
X0260000Y0101800D01*
X0235000Y0101800D01*
X0235000Y0081800D01*
X0230000Y0086800D01*
X0220000Y0086800D01*
X0235000Y0081800D02*
X0235000Y0071800D01*
X0235000Y0061800D01*
X0235000Y0051800D01*
X0235000Y0041800D01*
X0235000Y0031800D01*
X0235000Y0021800D01*
X0235000Y0011800D01*
X0186000Y0062800D02*
X0167500Y0062800D01*
X0167500Y0072800D02*
X0164000Y0072800D01*
X0150000Y0086800D01*
X0150000Y0096800D02*
X0153500Y0096800D01*
X0167500Y0082800D01*
X0261500Y0176800D01*
X0315000Y0176800D01*
X0330000Y0191800D01*
X0330000Y0201800D02*
X0315000Y0186800D01*
X0261500Y0186800D01*
X0167500Y0092800D01*
X0167500Y0102800D02*
X0171500Y0106800D01*
X0175000Y0106800D01*
X0170000Y0072800D02*
X0167500Y0072800D01*
X0170000Y0072800D02*
X0186000Y0072800D01*
X0285000Y0171800D01*
X0290000Y0166800D02*
X0315000Y0166800D01*
X0330000Y0181800D01*
X0320000Y0201800D02*
X0330000Y0211800D01*
X0325000Y0226800D02*
X0330000Y0231800D01*
X0330000Y0266800D01*
X0365000Y0301800D01*
X0380000Y0301800D02*
X0380000Y0281957D01*
X0385157Y0276800D01*
X0385157Y0241643D01*
X0395000Y0231800D01*
X0440000Y0231800D01*
X0485000Y0241800D02*
X0485000Y0246800D01*
X0400000Y0331800D01*
X0365000Y0331800D01*
X0335000Y0331800D02*
X0315000Y0331800D01*
X0305000Y0341800D01*
X0315000Y0341800D02*
X0335000Y0341800D01*
X0335000Y0351800D02*
X0325000Y0361800D01*
X0290000Y0361800D01*
X0290000Y0341800D01*
X0275000Y0326800D01*
X0255000Y0326800D01*
X0235000Y0306800D01*
X0235000Y0276800D01*
X0220000Y0261800D01*
X0215000Y0261800D01*
X0190000Y0236800D01*
X0190000Y0226800D01*
X0180000Y0216800D01*
X0150000Y0216800D01*
X0150000Y0226643D02*
X0150000Y0236800D01*
X0165000Y0251800D01*
X0165000Y0271800D01*
X0159882Y0276918D01*
X0154130Y0276918D01*
X0154248Y0266800D02*
X0160000Y0266800D01*
X0154248Y0266800D02*
X0154130Y0266682D01*
X0170000Y0271800D02*
X0175000Y0276800D01*
X0220000Y0276800D01*
X0200000Y0296800D02*
X0190000Y0286800D01*
X0175000Y0286800D01*
X0170000Y0271800D02*
X0170000Y0236800D01*
X0150000Y0206957D02*
X0150000Y0181800D01*
X0145000Y0176800D01*
X0245000Y0251800D02*
X0265000Y0231800D01*
X0280000Y0231800D01*
X0285000Y0231800D01*
X0290000Y0226800D01*
X0325000Y0226800D01*
X0330000Y0231800D02*
X0345000Y0231800D01*
X0355000Y0221800D01*
X0370000Y0221800D01*
X0410000Y0181800D01*
X0410000Y0131800D01*
X0420000Y0131800D01*
X0430000Y0141800D01*
X0430000Y0151800D01*
X0440000Y0151800D01*
X0450000Y0151800D01*
X0457500Y0144300D01*
X0457500Y0094300D01*
X0455000Y0091800D01*
X0440000Y0111800D02*
X0415000Y0111800D01*
X0405000Y0121800D01*
X0405000Y0146800D01*
X0400000Y0146800D01*
X0390000Y0156800D01*
X0385000Y0156800D01*
X0365000Y0136800D01*
X0365000Y0126800D01*
X0335000Y0126800D01*
X0330000Y0131800D01*
X0330000Y0121800D02*
X0370000Y0121800D01*
X0370000Y0131800D01*
X0385000Y0146800D01*
X0395000Y0146800D01*
X0395000Y0121800D01*
X0410000Y0121800D02*
X0440000Y0121800D01*
X0457500Y0144300D02*
X0470000Y0131800D01*
X0385000Y0106800D02*
X0385000Y0081800D01*
X0385000Y0071800D01*
X0385000Y0061800D01*
X0385000Y0051800D01*
X0385000Y0041800D01*
X0385000Y0031800D01*
X0385000Y0021800D01*
X0385000Y0011800D01*
X0290000Y0101800D02*
X0300000Y0111800D01*
X0315000Y0111800D01*
X0350000Y0141800D02*
X0350000Y0146800D01*
X0345000Y0151800D01*
X0330000Y0151800D01*
X0290000Y0166800D02*
X0186000Y0062800D01*
X0285000Y0191800D02*
X0300000Y0191800D01*
X0300000Y0201800D02*
X0295000Y0201800D01*
X0290000Y0206800D01*
X0290000Y0216800D01*
X0285000Y0221800D01*
X0280000Y0221800D01*
X0280000Y0216800D02*
X0280000Y0206800D01*
X0285000Y0201800D01*
X0285000Y0191800D01*
X0293111Y0231800D02*
X0285911Y0239000D01*
X0282200Y0239000D01*
X0280000Y0236800D01*
X0255000Y0261800D01*
X0255000Y0276643D01*
X0260157Y0281800D01*
X0250157Y0291800D01*
X0245000Y0291800D01*
X0305000Y0311800D02*
X0335000Y0311800D01*
X0335000Y0321800D02*
X0305000Y0321800D01*
X0315000Y0341800D02*
X0305000Y0351800D01*
X0300000Y0231800D02*
X0293111Y0231800D01*
D25*
X0320000Y0201800D03*
X0285000Y0171800D03*
X0315000Y0111800D03*
X0315000Y0091800D03*
X0235000Y0101800D03*
X0395000Y0121800D03*
X0410000Y0121800D03*
X0485000Y0191800D03*
X0485000Y0241800D03*
X0220000Y0276800D03*
X0160000Y0266800D03*
D26*
X0175000Y0106800D03*
X0220000Y0086800D03*
M02*
